<?xml version="1.0" encoding="UTF-8"?>
<svg width="307px" height="56px" viewBox="0 0 307 56" version="1.1" xmlns="http://www.w3.org/2000/svg" xmlns:xlink="http://www.w3.org/1999/xlink">
    <!-- Generator: Sketch 46.2 (44496) - http://www.bohemiancoding.com/sketch -->
    <title>Logo Copy</title>
    <desc>Created with Sketch.</desc>
    <defs></defs>
    <g id="Page-1" stroke="none" stroke-width="1" fill="none" fill-rule="evenodd">
        <g id="Logo-Copy" fill="#FFFFFF">
            <g id="Group" transform="translate(0.000000, -1.000000)">
                <g id="Speaker" transform="translate(29.168518, 28.131747) rotate(-40.000000) translate(-29.168518, -28.131747) translate(5.168518, 12.631747)">
                    <path d="M1.97959046,18.8654971 L35.5851181,25.1645539 L35.5851181,5.53097574 L1.98750882,11.8300326 L1.97959046,18.8654971 Z M35.9374852,27.2154096 C35.8305873,27.2154096 35.7197302,27.2074913 35.6128323,27.1876953 L1.58367237,20.8054957 C0.69285666,20.6392101 0,19.7998638 0,18.8971705 L0,11.8023183 C0,10.8996251 0.69285666,10.0602787 1.58367237,9.89399311 L35.6128323,3.51179347 C35.7197302,3.49199757 35.8305873,3.48407921 35.9374852,3.48407921 C36.8480968,3.48407921 37.5647085,4.20860931 37.5647085,5.13109847 L37.5647085,25.5683904 C37.5647085,26.4908795 36.8480968,27.2154096 35.9374852,27.2154096 L35.9374852,27.2154096 Z" id="Fill-1278"></path>
                    <path d="M15.733785,30.8538969 C15.1953364,30.8538969 14.6489694,30.8024275 14.1105208,30.6955296 C11.9210937,30.2679381 10.0286053,29.0128778 8.78146327,27.1599811 C7.53828046,25.3070844 7.08693384,23.0820247 7.51848456,20.8925977 C7.62142326,20.3581083 8.14007596,20.0057412 8.67852457,20.1126391 C9.21301399,20.2155778 9.56538109,20.7381896 9.45848321,21.2726791 C9.13383037,22.9434534 9.47431993,24.641942 10.4245234,26.0553696 C11.3747268,27.4687972 12.8198278,28.426919 14.4906022,28.7515718 C16.1613765,29.0801838 17.8598651,28.7357351 19.2693335,27.7855317 C20.6827611,26.8353282 21.6408829,25.3941864 21.9694949,23.723412 C22.0724336,23.1849634 22.5950455,22.8325963 23.1295349,22.9394942 C23.6679835,23.0463921 24.0163914,23.5650448 23.9094935,24.1034934 C23.481902,26.2929205 22.2268417,28.1854089 20.3779042,29.4285917 C18.9803133,30.3669176 17.376845,30.8538969 15.733785,30.8538969" id="Fill-1279"></path>
                    <path d="M46.3857636,16.0861521 L41.4447058,16.0861521 C40.8983389,16.0861521 40.4549106,15.6427238 40.4549106,15.0963568 C40.4549106,14.5499899 40.8983389,14.1065616 41.4447058,14.1065616 L46.3857636,14.1065616 C46.9321306,14.1065616 47.3755588,14.5499899 47.3755588,15.0963568 C47.3755588,15.6427238 46.9321306,16.0861521 46.3857636,16.0861521" id="Fill-1280"></path>
                    <path d="M46.3857636,22.7494535 L41.4447058,22.7494535 C40.8983389,22.7494535 40.4549106,22.3060253 40.4549106,21.7596583 C40.4549106,21.2132913 40.8983389,20.7698631 41.4447058,20.7698631 L46.3857636,20.7698631 C46.9321306,20.7698631 47.3755588,21.2132913 47.3755588,21.7596583 C47.3755588,22.3060253 46.9321306,22.7494535 46.3857636,22.7494535" id="Fill-1281"></path>
                    <path d="M46.3857636,9.74354423 L41.4447058,9.74354423 C40.8983389,9.74354423 40.4549106,9.30011597 40.4549106,8.753749 C40.4549106,8.20738204 40.8983389,7.76395378 41.4447058,7.76395378 L46.3857636,7.76395378 C46.9321306,7.76395378 47.3755588,8.20738204 47.3755588,8.753749 C47.3755588,9.30011597 46.9321306,9.74354423 46.3857636,9.74354423" id="Fill-1282"></path>
                    <path d="M36.5749133,30.8538969 C36.0285463,30.8538969 35.5851181,30.4104686 35.5851181,29.8641016 L35.5851181,0.989795229 C35.5851181,0.443428263 36.0285463,0 36.5749133,0 C37.1212803,0 37.5647085,0.443428263 37.5647085,0.989795229 L37.5647085,29.8641016 C37.5647085,30.4104686 37.1212803,30.8538969 36.5749133,30.8538969" id="Fill-1283"></path>
                </g>
                <path d="M60.512,24.808 C60.3839994,24.6799994 60.32,24.5280009 60.32,24.352 L60.32,8.848 C60.32,8.67199912 60.3839994,8.52000064 60.512,8.392 C60.6400006,8.26399936 60.7919991,8.2 60.968,8.2 L73.28,8.2 C73.4560009,8.2 73.6079994,8.26399936 73.736,8.392 C73.8640006,8.52000064 73.928,8.67199912 73.928,8.848 L73.928,12.232 C73.928,12.4080009 73.8640006,12.5599994 73.736,12.688 C73.6079994,12.8160006 73.4560009,12.88 73.28,12.88 L66.08,12.88 L66.08,14.392 L72.752,14.392 C72.9280009,14.392 73.0799994,14.4559994 73.208,14.584 C73.3360006,14.7120006 73.4,14.8639991 73.4,15.04 L73.4,18.16 C73.4,18.3360009 73.3360006,18.4879994 73.208,18.616 C73.0799994,18.7440006 72.9280009,18.808 72.752,18.808 L66.08,18.808 L66.08,20.32 L73.472,20.32 C73.6480009,20.32 73.7999994,20.3839994 73.928,20.512 C74.0560006,20.6400006 74.12,20.7919991 74.12,20.968 L74.12,24.352 C74.12,24.5280009 74.0560006,24.6799994 73.928,24.808 C73.7999994,24.9360006 73.6480009,25 73.472,25 L60.968,25 C60.7919991,25 60.6400006,24.9360006 60.512,24.808 Z M80.264,24.76 C80.0879991,24.5999992 79.9680003,24.416001 79.904,24.208 L75.392,8.896 L75.368,8.728 C75.368,8.58399928 75.4199995,8.46000052 75.524,8.356 C75.6280005,8.25199948 75.7519993,8.2 75.896,8.2 L80.36,8.2 C80.6640015,8.2 80.9039991,8.2799992 81.08,8.44 C81.2560009,8.6000008 81.3759997,8.78399896 81.44,8.992 L83.72,17.92 L86,8.992 C86.0640003,8.78399896 86.1839991,8.6000008 86.36,8.44 C86.5360009,8.2799992 86.7759985,8.2 87.08,8.2 L91.544,8.2 C91.6880007,8.2 91.8119995,8.25199948 91.916,8.356 C92.0200005,8.46000052 92.072,8.58399928 92.072,8.728 L92.048,8.896 L87.536,24.208 C87.4719997,24.416001 87.3520009,24.5999992 87.176,24.76 C86.9999991,24.9200008 86.7600015,25 86.456,25 L80.984,25 C80.6799985,25 80.4400009,24.9200008 80.264,24.76 Z M93.944,24.808 C93.8159994,24.6799994 93.752,24.5280009 93.752,24.352 L93.752,8.848 C93.752,8.67199912 93.8159994,8.52000064 93.944,8.392 C94.0720006,8.26399936 94.2239991,8.2 94.4,8.2 L106.712,8.2 C106.888001,8.2 107.039999,8.26399936 107.168,8.392 C107.296001,8.52000064 107.36,8.67199912 107.36,8.848 L107.36,12.232 C107.36,12.4080009 107.296001,12.5599994 107.168,12.688 C107.039999,12.8160006 106.888001,12.88 106.712,12.88 L99.512,12.88 L99.512,14.392 L106.184,14.392 C106.360001,14.392 106.511999,14.4559994 106.64,14.584 C106.768001,14.7120006 106.832,14.8639991 106.832,15.04 L106.832,18.16 C106.832,18.3360009 106.768001,18.4879994 106.64,18.616 C106.511999,18.7440006 106.360001,18.808 106.184,18.808 L99.512,18.808 L99.512,20.32 L106.904,20.32 C107.080001,20.32 107.231999,20.3839994 107.36,20.512 C107.488001,20.6400006 107.552,20.7919991 107.552,20.968 L107.552,24.352 C107.552,24.5280009 107.488001,24.6799994 107.36,24.808 C107.231999,24.9360006 107.080001,25 106.904,25 L94.4,25 C94.2239991,25 94.0720006,24.9360006 93.944,24.808 Z M109.952,24.808 C109.823999,24.6799994 109.76,24.5280009 109.76,24.352 L109.76,8.848 C109.76,8.67199912 109.823999,8.52000064 109.952,8.392 C110.080001,8.26399936 110.231999,8.2 110.408,8.2 L114.2,8.2 C114.648002,8.2 114.975999,8.38399816 115.184,8.752 L119.24,15.4 L119.24,8.848 C119.24,8.67199912 119.303999,8.52000064 119.432,8.392 C119.560001,8.26399936 119.711999,8.2 119.888,8.2 L124.232,8.2 C124.408001,8.2 124.559999,8.26399936 124.688,8.392 C124.816001,8.52000064 124.88,8.67199912 124.88,8.848 L124.88,24.352 C124.88,24.5280009 124.816001,24.6799994 124.688,24.808 C124.559999,24.9360006 124.408001,25 124.232,25 L120.44,25 C120.167999,25 119.960001,24.9440006 119.816,24.832 C119.671999,24.7199994 119.552,24.5920007 119.456,24.448 L115.4,18.328 L115.4,24.352 C115.4,24.5280009 115.336001,24.6799994 115.208,24.808 C115.079999,24.9360006 114.928001,25 114.752,25 L110.408,25 C110.231999,25 110.080001,24.9360006 109.952,24.808 Z M131.432,24.808 C131.303999,24.6799994 131.24,24.5280009 131.24,24.352 L131.24,13.36 L127.256,13.36 C127.079999,13.36 126.928001,13.2960006 126.8,13.168 C126.671999,13.0399994 126.608,12.8880009 126.608,12.712 L126.608,8.848 C126.608,8.67199912 126.671999,8.52000064 126.8,8.392 C126.928001,8.26399936 127.079999,8.2 127.256,8.2 L141.32,8.2 C141.496001,8.2 141.647999,8.26399936 141.776,8.392 C141.904001,8.52000064 141.968,8.67199912 141.968,8.848 L141.968,12.712 C141.968,12.8880009 141.904001,13.0399994 141.776,13.168 C141.647999,13.2960006 141.496001,13.36 141.32,13.36 L137.336,13.36 L137.336,24.352 C137.336,24.5280009 137.272001,24.6799994 137.144,24.808 C137.015999,24.9360006 136.864001,25 136.688,25 L131.888,25 C131.711999,25 131.560001,24.9360006 131.432,24.808 Z M148.352,24.808 C148.223999,24.6799994 148.16,24.5280009 148.16,24.352 L148.16,8.848 C148.16,8.67199912 148.223999,8.52000064 148.352,8.392 C148.480001,8.26399936 148.631999,8.2 148.808,8.2 L152.6,8.2 C153.048002,8.2 153.391999,8.41599784 153.632,8.848 L157.112,14.608 L160.592,8.848 C160.832001,8.41599784 161.175998,8.2 161.624,8.2 L165.416,8.2 C165.592001,8.2 165.743999,8.26399936 165.872,8.392 C166.000001,8.52000064 166.064,8.67199912 166.064,8.848 L166.064,24.352 C166.064,24.5280009 166.000001,24.6799994 165.872,24.808 C165.743999,24.9360006 165.592001,25 165.416,25 L161.072,25 C160.895999,25 160.744001,24.9360006 160.616,24.808 C160.487999,24.6799994 160.424,24.5280009 160.424,24.352 L160.424,17.776 L158.84,20.368 C158.727999,20.5440009 158.604001,20.6879994 158.468,20.8 C158.331999,20.9120006 158.160001,20.968 157.952,20.968 L156.272,20.968 C156.063999,20.968 155.892001,20.9120006 155.756,20.8 C155.619999,20.6879994 155.496001,20.5440009 155.384,20.368 L153.8,17.776 L153.8,24.352 C153.8,24.5280009 153.736001,24.6799994 153.608,24.808 C153.479999,24.9360006 153.328001,25 153.152,25 L148.808,25 C148.631999,25 148.480001,24.9360006 148.352,24.808 Z M167.54,24.844 C167.435999,24.7399995 167.384,24.6160007 167.384,24.472 C167.384,24.4079997 167.392,24.3520002 167.408,24.304 L172.76,8.992 C172.824,8.78399896 172.943999,8.6000008 173.12,8.44 C173.296001,8.2799992 173.535998,8.2 173.84,8.2 L179.048,8.2 C179.352002,8.2 179.591999,8.2799992 179.768,8.44 C179.944001,8.6000008 180.064,8.78399896 180.128,8.992 L185.48,24.304 C185.496,24.3520002 185.504,24.4079997 185.504,24.472 C185.504,24.6160007 185.452001,24.7399995 185.348,24.844 C185.243999,24.9480005 185.120001,25 184.976,25 L180.536,25 C180.055998,25 179.744001,24.800002 179.6,24.4 L179.024,22.816 L173.864,22.816 L173.288,24.4 C173.143999,24.800002 172.832002,25 172.352,25 L167.912,25 C167.767999,25 167.644001,24.9480005 167.54,24.844 Z M175.088,18.136 L177.8,18.136 L176.432,13.672 L175.088,18.136 Z M187.016,24.808 C186.887999,24.6799994 186.824,24.5280009 186.824,24.352 L186.824,8.848 C186.824,8.67199912 186.887999,8.52000064 187.016,8.392 C187.144001,8.26399936 187.295999,8.2 187.472,8.2 L194.576,8.2 C196.880012,8.2 198.679994,8.71599484 199.976,9.748 C201.272006,10.7800052 201.92,12.2079909 201.92,14.032 C201.92,15.0720052 201.688002,15.987996 201.224,16.78 C200.759998,17.572004 200.128004,18.2239974 199.328,18.736 L202.28,24.208 C202.328,24.3040005 202.352,24.3919996 202.352,24.472 C202.352,24.6160007 202.300001,24.7399995 202.196,24.844 C202.091999,24.9480005 201.968001,25 201.824,25 L196.904,25 C196.615999,25 196.388001,24.9320007 196.22,24.796 C196.051999,24.6599993 195.936,24.5120008 195.872,24.352 L193.808,19.768 L192.824,19.768 L192.824,24.352 C192.824,24.5280009 192.760001,24.6799994 192.632,24.808 C192.503999,24.9360006 192.352001,25 192.176,25 L187.472,25 C187.295999,25 187.144001,24.9360006 187.016,24.808 Z M194.576,15.208 C194.928002,15.208 195.199999,15.0920012 195.392,14.86 C195.584001,14.6279988 195.68,14.3360018 195.68,13.984 C195.68,13.6319982 195.588001,13.3240013 195.404,13.06 C195.219999,12.7959987 194.944002,12.664 194.576,12.664 L192.824,12.664 L192.824,15.208 L194.576,15.208 Z M204.344,24.808 C204.215999,24.6799994 204.152,24.5280009 204.152,24.352 L204.152,8.848 C204.152,8.67199912 204.215999,8.52000064 204.344,8.392 C204.472001,8.26399936 204.623999,8.2 204.8,8.2 L209.384,8.2 C209.560001,8.2 209.711999,8.26399936 209.84,8.392 C209.968001,8.52000064 210.032,8.67199912 210.032,8.848 L210.032,13.6 L212.744,8.728 C212.936001,8.37599824 213.255998,8.2 213.704,8.2 L219.008,8.2 C219.152001,8.2 219.275999,8.25199948 219.38,8.356 C219.484001,8.46000052 219.536,8.58399928 219.536,8.728 C219.536,8.82400048 219.512,8.9119996 219.464,8.992 L215.144,16.24 L219.872,24.208 C219.92,24.2720003 219.944,24.3599994 219.944,24.472 C219.944,24.6160007 219.892001,24.7399995 219.788,24.844 C219.683999,24.9480005 219.560001,25 219.416,25 L213.944,25 C213.671999,25 213.456001,24.9400006 213.296,24.82 C213.135999,24.6999994 213.024,24.5760006 212.96,24.448 L210.032,19.216 L210.032,24.352 C210.032,24.5280009 209.968001,24.6799994 209.84,24.808 C209.711999,24.9360006 209.560001,25 209.384,25 L204.8,25 C204.623999,25 204.472001,24.9360006 204.344,24.808 Z M221.504,24.808 C221.375999,24.6799994 221.312,24.5280009 221.312,24.352 L221.312,8.848 C221.312,8.67199912 221.375999,8.52000064 221.504,8.392 C221.632001,8.26399936 221.783999,8.2 221.96,8.2 L234.272,8.2 C234.448001,8.2 234.599999,8.26399936 234.728,8.392 C234.856001,8.52000064 234.92,8.67199912 234.92,8.848 L234.92,12.232 C234.92,12.4080009 234.856001,12.5599994 234.728,12.688 C234.599999,12.8160006 234.448001,12.88 234.272,12.88 L227.072,12.88 L227.072,14.392 L233.744,14.392 C233.920001,14.392 234.071999,14.4559994 234.2,14.584 C234.328001,14.7120006 234.392,14.8639991 234.392,15.04 L234.392,18.16 C234.392,18.3360009 234.328001,18.4879994 234.2,18.616 C234.071999,18.7440006 233.920001,18.808 233.744,18.808 L227.072,18.808 L227.072,20.32 L234.464,20.32 C234.640001,20.32 234.791999,20.3839994 234.92,20.512 C235.048001,20.6400006 235.112,20.7919991 235.112,20.968 L235.112,24.352 C235.112,24.5280009 235.048001,24.6799994 234.92,24.808 C234.791999,24.9360006 234.640001,25 234.464,25 L221.96,25 C221.783999,25 221.632001,24.9360006 221.504,24.808 Z M241.232,24.808 C241.103999,24.6799994 241.04,24.5280009 241.04,24.352 L241.04,13.36 L237.056,13.36 C236.879999,13.36 236.728001,13.2960006 236.6,13.168 C236.471999,13.0399994 236.408,12.8880009 236.408,12.712 L236.408,8.848 C236.408,8.67199912 236.471999,8.52000064 236.6,8.392 C236.728001,8.26399936 236.879999,8.2 237.056,8.2 L251.12,8.2 C251.296001,8.2 251.447999,8.26399936 251.576,8.392 C251.704001,8.52000064 251.768,8.67199912 251.768,8.848 L251.768,12.712 C251.768,12.8880009 251.704001,13.0399994 251.576,13.168 C251.447999,13.2960006 251.296001,13.36 251.12,13.36 L247.136,13.36 L247.136,24.352 C247.136,24.5280009 247.072001,24.6799994 246.944,24.808 C246.815999,24.9360006 246.664001,25 246.488,25 L241.688,25 C241.511999,25 241.360001,24.9360006 241.232,24.808 Z M253.688,24.808 C253.559999,24.6799994 253.496,24.5280009 253.496,24.352 L253.496,8.848 C253.496,8.67199912 253.559999,8.52000064 253.688,8.392 C253.816001,8.26399936 253.967999,8.2 254.144,8.2 L259.04,8.2 C259.216001,8.2 259.367999,8.26399936 259.496,8.392 C259.624001,8.52000064 259.688,8.67199912 259.688,8.848 L259.688,24.352 C259.688,24.5280009 259.624001,24.6799994 259.496,24.808 C259.367999,24.9360006 259.216001,25 259.04,25 L254.144,25 C253.967999,25 253.816001,24.9360006 253.688,24.808 Z M262.52,24.808 C262.391999,24.6799994 262.328,24.5280009 262.328,24.352 L262.328,8.848 C262.328,8.67199912 262.391999,8.52000064 262.52,8.392 C262.648001,8.26399936 262.799999,8.2 262.976,8.2 L266.768,8.2 C267.216002,8.2 267.543999,8.38399816 267.752,8.752 L271.808,15.4 L271.808,8.848 C271.808,8.67199912 271.871999,8.52000064 272,8.392 C272.128001,8.26399936 272.279999,8.2 272.456,8.2 L276.8,8.2 C276.976001,8.2 277.127999,8.26399936 277.256,8.392 C277.384001,8.52000064 277.448,8.67199912 277.448,8.848 L277.448,24.352 C277.448,24.5280009 277.384001,24.6799994 277.256,24.808 C277.127999,24.9360006 276.976001,25 276.8,25 L273.008,25 C272.735999,25 272.528001,24.9440006 272.384,24.832 C272.239999,24.7199994 272.12,24.5920007 272.024,24.448 L267.968,18.328 L267.968,24.352 C267.968,24.5280009 267.904001,24.6799994 267.776,24.808 C267.647999,24.9360006 267.496001,25 267.32,25 L262.976,25 C262.799999,25 262.648001,24.9360006 262.52,24.808 Z M281.912,23.584 C280.503993,22.4799945 279.752,20.832011 279.656,18.64 C279.64,18.2079978 279.632,17.496005 279.632,16.504 C279.632,15.495995 279.64,14.7680022 279.656,14.32 C279.736,12.2399896 280.495993,10.6600054 281.936,9.58 C283.376007,8.4999946 285.311988,7.96 287.744,7.96 C289.376008,7.96 290.815994,8.1999976 292.064,8.68 C293.312006,9.1600024 294.271997,9.80799592 294.944,10.624 C295.616003,11.4400041 295.968,12.3359951 296,13.312 C296,13.4560007 295.948001,13.5799995 295.844,13.684 C295.739999,13.7880005 295.616001,13.84 295.472,13.84 L290.168,13.84 C289.847998,13.84 289.616001,13.7520009 289.472,13.576 C289.456,13.5439998 289.384001,13.4440008 289.256,13.276 C289.127999,13.1079992 288.932001,12.9600006 288.668,12.832 C288.403999,12.7039994 288.096002,12.64 287.744,12.64 C286.559994,12.64 285.944,13.239994 285.896,14.44 C285.88,14.8720022 285.872,15.5439954 285.872,16.456 C285.872,17.3680046 285.88,18.0559977 285.896,18.52 C285.944,19.8800068 286.591994,20.56 287.84,20.56 C288.480003,20.56 288.979998,20.4240014 289.34,20.152 C289.700002,19.8799986 289.88,19.448003 289.88,18.856 L289.88,18.832 L288.752,18.832 C288.575999,18.832 288.424001,18.7680006 288.296,18.64 C288.167999,18.5119994 288.104,18.3600009 288.104,18.184 L288.104,15.52 C288.104,15.3439991 288.167999,15.1920006 288.296,15.064 C288.424001,14.9359994 288.575999,14.872 288.752,14.872 L295.352,14.872 C295.528001,14.872 295.679999,14.9359994 295.808,15.064 C295.936001,15.1920006 296,15.3439991 296,15.52 L296,18.64 C296,20.048007 295.652003,21.247995 294.956,22.24 C294.259997,23.232005 293.292006,23.9799975 292.052,24.484 C290.811994,24.9880025 289.376008,25.24 287.744,25.24 C285.263988,25.24 283.320007,24.6880055 281.912,23.584 Z M64.232,48.808 C64.1039994,48.6799994 64.04,48.5280009 64.04,48.352 L64.04,37.36 L60.056,37.36 C59.8799991,37.36 59.7280006,37.2960006 59.6,37.168 C59.4719994,37.0399994 59.408,36.8880009 59.408,36.712 L59.408,32.848 C59.408,32.6719991 59.4719994,32.5200006 59.6,32.392 C59.7280006,32.2639994 59.8799991,32.2 60.056,32.2 L74.12,32.2 C74.2960009,32.2 74.4479994,32.2639994 74.576,32.392 C74.7040006,32.5200006 74.768,32.6719991 74.768,32.848 L74.768,36.712 C74.768,36.8880009 74.7040006,37.0399994 74.576,37.168 C74.4479994,37.2960006 74.2960009,37.36 74.12,37.36 L70.136,37.36 L70.136,48.352 C70.136,48.5280009 70.0720006,48.6799994 69.944,48.808 C69.8159994,48.9360006 69.6640009,49 69.488,49 L64.688,49 C64.5119991,49 64.3600006,48.9360006 64.232,48.808 Z M78.344,47.584 C76.9199929,46.4799945 76.1600005,44.8720106 76.064,42.76 C76.0479999,42.3279978 76.04,41.6320048 76.04,40.672 C76.04,39.6959951 76.0479999,38.9840022 76.064,38.536 C76.1120002,37.1599931 76.4759966,35.976005 77.156,34.984 C77.8360034,33.991995 78.7679941,33.2400026 79.952,32.728 C81.1360059,32.2159974 82.5119922,31.96 84.08,31.96 C85.6480078,31.96 87.0239941,32.2159974 88.208,32.728 C89.3920059,33.2400026 90.3239966,33.991995 91.004,34.984 C91.6840034,35.976005 92.0479998,37.1599931 92.096,38.536 C92.1280002,39.4320045 92.144,40.1439974 92.144,40.672 C92.144,41.2000026 92.1280002,41.8959957 92.096,42.76 C91.9999995,44.8720106 91.2400071,46.4799945 89.816,47.584 C88.3919929,48.6880055 86.480012,49.24 84.08,49.24 C81.679988,49.24 79.7680071,48.6880055 78.344,47.584 Z M85.364,44.08 C85.6760016,43.7599984 85.8399999,43.2720033 85.856,42.616 C85.8880002,41.6879954 85.904,41.0080022 85.904,40.576 C85.904,40.1119977 85.8880002,39.4480043 85.856,38.584 C85.8399999,37.9279967 85.6720016,37.4400016 85.352,37.12 C85.0319984,36.7999984 84.6080026,36.64 84.08,36.64 C83.5519974,36.64 83.1280016,36.7999984 82.808,37.12 C82.4879984,37.4400016 82.3200001,37.9279967 82.304,38.584 C82.2879999,39.0160022 82.28,39.6799955 82.28,40.576 C82.28,41.4720045 82.2879999,42.1519977 82.304,42.616 C82.3200001,43.2720033 82.4839984,43.7599984 82.796,44.08 C83.1080016,44.4000016 83.5359973,44.56 84.08,44.56 C84.6240027,44.56 85.0519984,44.4000016 85.364,44.08 Z M96.152,47.584 C94.7279929,46.4799945 93.9680005,44.8720106 93.872,42.76 C93.8559999,42.3279978 93.848,41.6320048 93.848,40.672 C93.848,39.6959951 93.8559999,38.9840022 93.872,38.536 C93.9200002,37.1599931 94.2839966,35.976005 94.964,34.984 C95.6440034,33.991995 96.5759941,33.2400026 97.76,32.728 C98.9440059,32.2159974 100.319992,31.96 101.888,31.96 C103.456008,31.96 104.831994,32.2159974 106.016,32.728 C107.200006,33.2400026 108.131997,33.991995 108.812,34.984 C109.492003,35.976005 109.856,37.1599931 109.904,38.536 C109.936,39.4320045 109.952,40.1439974 109.952,40.672 C109.952,41.2000026 109.936,41.8959957 109.904,42.76 C109.808,44.8720106 109.048007,46.4799945 107.624,47.584 C106.199993,48.6880055 104.288012,49.24 101.888,49.24 C99.487988,49.24 97.5760071,48.6880055 96.152,47.584 Z M103.172,44.08 C103.484002,43.7599984 103.648,43.2720033 103.664,42.616 C103.696,41.6879954 103.712,41.0080022 103.712,40.576 C103.712,40.1119977 103.696,39.4480043 103.664,38.584 C103.648,37.9279967 103.480002,37.4400016 103.16,37.12 C102.839998,36.7999984 102.416003,36.64 101.888,36.64 C101.359997,36.64 100.936002,36.7999984 100.616,37.12 C100.295998,37.4400016 100.128,37.9279967 100.112,38.584 C100.096,39.0160022 100.088,39.6799955 100.088,40.576 C100.088,41.4720045 100.096,42.1519977 100.112,42.616 C100.128,43.2720033 100.291998,43.7599984 100.604,44.08 C100.916002,44.4000016 101.343997,44.56 101.888,44.56 C102.432003,44.56 102.859998,44.4000016 103.172,44.08 Z M112.304,48.808 C112.175999,48.6799994 112.112,48.5280009 112.112,48.352 L112.112,32.848 C112.112,32.6719991 112.175999,32.5200006 112.304,32.392 C112.432001,32.2639994 112.583999,32.2 112.76,32.2 L117.56,32.2 C117.736001,32.2 117.887999,32.2639994 118.016,32.392 C118.144001,32.5200006 118.208,32.6719991 118.208,32.848 L118.208,44.08 L124.856,44.08 C125.032001,44.08 125.183999,44.1439994 125.312,44.272 C125.440001,44.4000006 125.504,44.5519991 125.504,44.728 L125.504,48.352 C125.504,48.5280009 125.440001,48.6799994 125.312,48.808 C125.183999,48.9360006 125.032001,49 124.856,49 L112.76,49 C112.583999,49 112.432001,48.9360006 112.304,48.808 Z M127.328,48.808 C127.199999,48.6799994 127.136,48.5280009 127.136,48.352 L127.136,32.848 C127.136,32.6719991 127.199999,32.5200006 127.328,32.392 C127.456001,32.2639994 127.607999,32.2 127.784,32.2 L135.752,32.2 C138.024011,32.2 139.699995,32.6159958 140.78,33.448 C141.860005,34.2800042 142.4,35.5439915 142.4,37.24 C142.4,37.9280034 142.200002,38.5399973 141.8,39.076 C141.399998,39.6120027 140.960002,39.9999988 140.48,40.24 C141.120003,40.4960013 141.659998,40.9479968 142.1,41.596 C142.540002,42.2440032 142.76,42.9519962 142.76,43.72 C142.76,45.4960089 142.184006,46.8199956 141.032,47.692 C139.879994,48.5640044 138.200011,49 135.992,49 L127.784,49 C127.607999,49 127.456001,48.9360006 127.328,48.808 Z M135.152,38.512 C135.472002,38.512 135.715999,38.4040011 135.884,38.188 C136.052001,37.9719989 136.136,37.7200014 136.136,37.432 C136.136,37.1439986 136.052001,36.8880011 135.884,36.664 C135.715999,36.4399989 135.472002,36.328 135.152,36.328 L133.136,36.328 L133.136,38.512 L135.152,38.512 Z M135.368,44.872 C135.736002,44.872 136.011999,44.7520012 136.196,44.512 C136.380001,44.2719988 136.472,44.0000015 136.472,43.696 C136.472,43.3919985 136.372001,43.1200012 136.172,42.88 C135.971999,42.6399988 135.704002,42.52 135.368,42.52 L133.136,42.52 L133.136,44.872 L135.368,44.872 Z M146.6,47.584 C145.175993,46.4799945 144.416,44.8720106 144.32,42.76 C144.304,42.3279978 144.296,41.6320048 144.296,40.672 C144.296,39.6959951 144.304,38.9840022 144.32,38.536 C144.368,37.1599931 144.731997,35.976005 145.412,34.984 C146.092003,33.991995 147.023994,33.2400026 148.208,32.728 C149.392006,32.2159974 150.767992,31.96 152.336,31.96 C153.904008,31.96 155.279994,32.2159974 156.464,32.728 C157.648006,33.2400026 158.579997,33.991995 159.26,34.984 C159.940003,35.976005 160.304,37.1599931 160.352,38.536 C160.384,39.4320045 160.4,40.1439974 160.4,40.672 C160.4,41.2000026 160.384,41.8959957 160.352,42.76 C160.256,44.8720106 159.496007,46.4799945 158.072,47.584 C156.647993,48.6880055 154.736012,49.24 152.336,49.24 C149.935988,49.24 148.024007,48.6880055 146.6,47.584 Z M153.62,44.08 C153.932002,43.7599984 154.096,43.2720033 154.112,42.616 C154.144,41.6879954 154.16,41.0080022 154.16,40.576 C154.16,40.1119977 154.144,39.4480043 154.112,38.584 C154.096,37.9279967 153.928002,37.4400016 153.608,37.12 C153.287998,36.7999984 152.864003,36.64 152.336,36.64 C151.807997,36.64 151.384002,36.7999984 151.064,37.12 C150.743998,37.4400016 150.576,37.9279967 150.56,38.584 C150.544,39.0160022 150.536,39.6799955 150.536,40.576 C150.536,41.4720045 150.544,42.1519977 150.56,42.616 C150.576,43.2720033 150.739998,43.7599984 151.052,44.08 C151.364002,44.4000016 151.791997,44.56 152.336,44.56 C152.880003,44.56 153.307998,44.4000016 153.62,44.08 Z M161.396,48.844 C161.291999,48.7399995 161.24,48.6160007 161.24,48.472 C161.24,48.3759995 161.264,48.2880004 161.312,48.208 L166.352,40.408 L161.816,32.992 C161.768,32.8959995 161.744,32.8080004 161.744,32.728 C161.744,32.5839993 161.795999,32.4600005 161.9,32.356 C162.004001,32.2519995 162.127999,32.2 162.272,32.2 L167.48,32.2 C167.928002,32.2 168.263999,32.399998 168.488,32.8 L170.168,35.728 L171.992,32.8 C172.216001,32.399998 172.551998,32.2 173,32.2 L177.968,32.2 C178.112001,32.2 178.235999,32.2519995 178.34,32.356 C178.444001,32.4600005 178.496,32.5839993 178.496,32.728 C178.496,32.8240005 178.472,32.9119996 178.424,32.992 L173.792,40.336 L178.904,48.208 C178.952,48.2880004 178.976,48.3759995 178.976,48.472 C178.976,48.6160007 178.924001,48.7399995 178.82,48.844 C178.715999,48.9480005 178.592001,49 178.448,49 L173.048,49 C172.615998,49 172.288001,48.8160018 172.064,48.448 L169.976,45.232 L167.984,48.448 C167.759999,48.8160018 167.432002,49 167,49 L161.768,49 C161.623999,49 161.500001,48.9480005 161.396,48.844 Z" id="Event-Marketing-Tool"></path>
            </g>
        </g>
    </g>
</svg>